<svg width="30" height="31" viewBox="0 0 30 31" fill="none" xmlns="http://www.w3.org/2000/svg">
<path d="M14.9114 3.3924C8.1061 3.3924 2.56958 8.92891 2.56958 15.7342V20.8474C2.56958 22.1112 3.67664 23.1392 5.03793 23.1392H6.27211C6.59944 23.1392 6.91335 23.0092 7.14481 22.7778C7.37626 22.5463 7.50629 22.2324 7.50629 21.9051V15.5577C7.50629 15.2304 7.37626 14.9164 7.14481 14.685C6.91335 14.4535 6.59944 14.3235 6.27211 14.3235H5.15148C5.83768 9.54724 9.94749 5.86075 14.9114 5.86075C19.8752 5.86075 23.985 9.54724 24.6712 14.3235H23.5506C23.2233 14.3235 22.9094 14.4535 22.6779 14.685C22.4464 14.9164 22.3164 15.2304 22.3164 15.5577V23.1392C22.3164 24.5005 21.2094 25.6076 19.8481 25.6076H17.3797V24.3734H12.443V28.0759H19.8481C22.5707 28.0759 24.7848 25.8618 24.7848 23.1392C26.1461 23.1392 27.2531 22.1112 27.2531 20.8474V15.7342C27.2531 8.92891 21.7166 3.3924 14.9114 3.3924Z" fill="white"/>
</svg>
