<svg width="26" height="26" viewBox="0 0 26 26" fill="none" xmlns="http://www.w3.org/2000/svg">
<path d="M25.2042 0.526463C25.1288 0.338628 24.9839 0.187102 24.7996 0.103407C24.6153 0.019711 24.4058 0.0102905 24.2147 0.0771047C24.0237 0.143919 23.8657 0.281824 23.7737 0.46213C23.6818 0.642436 23.6628 0.851261 23.7209 1.04516C24.9286 4.51616 22.5314 7.10836 20.7036 8.49676L19.9652 7.43856C19.7169 7.08366 19.1618 6.78856 18.7302 6.78336L14.5858 6.80156C14.0795 6.81685 13.5868 6.96867 13.1597 7.24096L0.947518 15.8041C0.663461 16.004 0.470183 16.3083 0.410001 16.6503C0.349819 16.9924 0.427637 17.3444 0.626418 17.6293L6.17612 25.5697C6.59212 26.1612 7.25642 26.0897 7.84922 25.6763L20.0614 17.1119C20.4124 16.8636 20.818 16.328 20.961 15.9185L22.2584 11.83C22.4014 11.4218 22.3143 10.7991 22.066 10.4442L21.6162 9.79936C24.0706 7.91826 26.6186 4.59416 25.2042 0.526463ZM19.5219 12.6919C19.2969 12.8493 19.0431 12.961 18.775 13.0203C18.5069 13.0797 18.2297 13.0856 17.9593 13.0378C17.6888 12.99 17.4305 12.8894 17.1989 12.7417C16.9674 12.594 16.7673 12.4021 16.6099 12.1771C16.2913 11.7216 16.1665 11.1584 16.2627 10.6109C16.359 10.0635 16.6686 9.57668 17.1234 9.25726C17.48 9.00742 17.9058 8.87525 18.3412 8.87921C18.7766 8.88317 19.1998 9.02308 19.5518 9.27936C19.1982 9.49256 18.9551 9.61736 18.9096 9.63686C18.7485 9.7137 18.6182 9.84299 18.5401 10.0036C18.4621 10.1641 18.4409 10.3464 18.48 10.5206C18.5192 10.6948 18.6163 10.8506 18.7555 10.9623C18.8947 11.0741 19.0678 11.1352 19.2463 11.1358C19.3581 11.1358 19.4725 11.1098 19.5804 11.0591C19.8326 10.9395 20.103 10.7978 20.3851 10.6301C20.45 11.0201 20.4034 11.4206 20.2507 11.7854C20.098 12.1501 19.8454 12.4644 19.5219 12.6919Z" fill="white"/>
</svg>
