<svg width="30" height="30" viewBox="0 0 30 30" fill="none" xmlns="http://www.w3.org/2000/svg">
<path d="M17.82 27.18L15 30L12.18 27.18C6.6375 25.9 2.5 20.93 2.5 15C2.5 8.1 8.1 2.5 15 2.5C21.9 2.5 27.5 8.1 27.5 15C27.5 20.93 23.3625 25.9 17.82 27.18ZM7.52875 19.27C9.36375 22.0075 12.1187 23.75 15.2 23.75C18.28 23.75 21.0362 22.0088 22.87 19.27C20.7897 17.3257 18.0474 16.246 15.2 16.25C12.3521 16.2457 9.60939 17.3255 7.52875 19.27ZM15 13.75C15.9946 13.75 16.9484 13.3549 17.6517 12.6517C18.3549 11.9484 18.75 10.9946 18.75 10C18.75 9.00544 18.3549 8.05161 17.6517 7.34835C16.9484 6.64509 15.9946 6.25 15 6.25C14.0054 6.25 13.0516 6.64509 12.3483 7.34835C11.6451 8.05161 11.25 9.00544 11.25 10C11.25 10.9946 11.6451 11.9484 12.3483 12.6517C13.0516 13.3549 14.0054 13.75 15 13.75Z" fill="white"/>
</svg>
